<?xml version="1.0" encoding="UTF-8" standalone="no"?>
<svg
   width="128"
   height="128"
   viewBox="0 0 10 10.5"
   fill="none"
   version="1.1"
   id="svg1"
   xml:space="preserve"
   xmlns:xlink="http://www.w3.org/1999/xlink"
   xmlns="http://www.w3.org/2000/svg"
   xmlns:svg="http://www.w3.org/2000/svg"><defs
     id="defs1"><linearGradient
       id="linearGradient4"><stop
         style="stop-color:#000000;stop-opacity:1;"
         offset="0"
         id="stop4" /><stop
         style="stop-color:#1d1d1d;stop-opacity:0.91824359;"
         offset="1"
         id="stop5" /></linearGradient><linearGradient
       id="linearGradient1"><stop
         style="stop-color:#000000;stop-opacity:1;"
         offset="0"
         id="stop1" /><stop
         style="stop-color:#656565;stop-opacity:1;"
         offset="0.51706189"
         id="stop3" /><stop
         style="stop-color:#0d0d0d;stop-opacity:1;"
         offset="1"
         id="stop2" /></linearGradient><linearGradient
       xlink:href="#linearGradient1"
       id="linearGradient6"
       gradientUnits="userSpaceOnUse"
       x1="2"
       y1="10.5"
       x2="18"
       y2="10.5"
       gradientTransform="matrix(0.5058848,0,0,0.53361296,-0.191654,-0.34378243)" /><linearGradient
       xlink:href="#linearGradient4"
       id="linearGradient7"
       gradientUnits="userSpaceOnUse"
       x1="9.7539062"
       y1="17.354549"
       x2="9.9589844"
       y2="2.7568932"
       gradientTransform="matrix(0.5058848,0,0,0.53361296,-0.191654,-0.34378243)" /></defs><title
     id="title4162">Adwaita Icon Template</title><g
     id="layer1"
     style="display:none"
     transform="matrix(0.078125,0,0,0.08203125,-0.460938,-14.109375)"><g
       id="layer2"
       style="display:inline"><rect
         style="display:inline;overflow:visible;visibility:visible;fill:#f0f0f0;fill-opacity:1;fill-rule:nonzero;stroke:none;stroke-width:0.5;marker:none;enable-background:accumulate"
         id="rect13805"
         width="128"
         height="128"
         x="9.2651362e-08"
         y="172" /></g><g
       id="layer3"
       style="display:inline"><circle
         cx="64.000038"
         cy="236"
         r="59.504131"
         id="circle2892"
         style="display:inline;opacity:0.1;vector-effect:none;fill:none;fill-opacity:1;stroke:#000000;stroke-width:0.99;stroke-linecap:butt;stroke-linejoin:miter;stroke-miterlimit:4;stroke-dasharray:0.99, 0.99;stroke-dashoffset:0;stroke-opacity:1;marker:none;marker-start:none;marker-mid:none;marker-end:none;paint-order:normal;enable-background:new" /><rect
         ry="8"
         rx="8"
         y="180.49496"
         x="20.494732"
         height="111.01005"
         width="87.009987"
         id="rect2894"
         style="display:inline;opacity:0.1;vector-effect:none;fill:none;fill-opacity:1;stroke:#000000;stroke-width:0.99;stroke-linecap:butt;stroke-linejoin:miter;stroke-miterlimit:4;stroke-dasharray:0.99, 0.99;stroke-dashoffset:0;stroke-opacity:1;marker:none;marker-start:none;marker-mid:none;marker-end:none;paint-order:normal;enable-background:new" /><rect
         ry="8"
         rx="8"
         y="184.49524"
         x="12.494978"
         height="103.00952"
         width="103.00952"
         id="rect2896"
         style="display:inline;opacity:0.1;vector-effect:none;fill:none;fill-opacity:1;stroke:#000000;stroke-width:0.99;stroke-linecap:butt;stroke-linejoin:miter;stroke-miterlimit:4;stroke-dasharray:0.99, 0.99;stroke-dashoffset:0;stroke-opacity:1;marker:none;marker-start:none;marker-mid:none;marker-end:none;paint-order:normal;enable-background:new" /><rect
         ry="8"
         rx="8"
         y="200.49496"
         x="8.4947042"
         height="87.010048"
         width="111.01004"
         id="rect2898"
         style="display:inline;opacity:0.1;vector-effect:none;fill:none;fill-opacity:1;stroke:#000000;stroke-width:0.99;stroke-linecap:butt;stroke-linejoin:miter;stroke-miterlimit:4;stroke-dasharray:0.99, 0.99;stroke-dashoffset:0;stroke-opacity:1;marker:none;marker-start:none;marker-mid:none;marker-end:none;paint-order:normal;enable-background:new" /><path
         id="path2900"
         d="M 2.6203015e-5,288.99999 H 128.00003"
         style="display:inline;fill:none;stroke:#62a0ea;stroke-width:2;stroke-linecap:butt;stroke-linejoin:miter;stroke-miterlimit:4;stroke-dasharray:none;stroke-opacity:1;enable-background:new" /></g></g><rect
     width="13"
     height="13"
     x="-2.78125"
     y="-2.5351562"
     id="rect1-0" /><path
     fill-rule="evenodd"
     clip-rule="evenodd"
     d="m 1.831882,0.99024986 c -0.558786,0 -1.01177,0.47781304 -1.01177,1.06722584 v 6.4033551 c 0,0.5894288 0.452984,1.0672258 1.01177,1.0672258 h 6.070616 c 0.558802,0 1.011769,-0.477797 1.011769,-1.0672258 V 2.0574757 c 0,-0.5894128 -0.45297,-1.06722584 -1.011769,-1.06722584 z M 6.23308,7.6604113 h 0.910592 l 0.0055,-1.8817704 -1.373469,-0.00272 0.01006,-0.3249185 c 0,0 0.602553,0.00869 0.955154,-0.2463979 C 7.059332,4.9742261 7.143002,4.5016097 7.143587,4.2986461 7.145887,3.5051033 6.520793,2.9255576 5.768525,2.9333426 L 2.59062,2.9662286 V 7.6604123 H 3.501214 V 5.7394048 Z"
     fill="currentColor"
     id="path1-9"
     style="fill:url(#linearGradient6);fill-opacity:1;stroke-width:0.519564" /><path
     fill-rule="evenodd"
     clip-rule="evenodd"
     d="m 1.831882,0.99024986 c -0.558786,0 -1.01177,0.44882794 -1.01177,1.00248594 V 8.007652 c 0,0.5536731 0.452984,1.0024863 1.01177,1.0024863 h 6.070616 c 0.558802,0 1.011769,-0.4488132 1.011769,-1.0024863 V 1.9927358 c 0,-0.553658 -0.45297,-1.00248594 -1.011769,-1.00248594 z M 6.23308,7.2557876 H 7.143672 V 5.4513126 H 6.784717 5.777782 c 0.752302,0 1.36589,-0.6079576 1.36589,-1.3533612 0,-0.7454084 -0.613588,-1.3533511 -1.36589,-1.3533511 H 2.59071 v 4.5111873 h 0.910593 v -1.804475 z"
     fill="currentColor"
     id="path1-5-3"
     style="display:inline;fill:url(#linearGradient7);stroke-width:0.503558" /></svg>
