<?xml version="1.0" encoding="UTF-8"?>
<svg height="128px" viewBox="0 0 128 128" width="128px" xmlns="http://www.w3.org/2000/svg" xmlns:xlink="http://www.w3.org/1999/xlink">
    <linearGradient id="a" gradientTransform="matrix(0.120984 0 0 0.121493 3.02391 2.05045)" gradientUnits="userSpaceOnUse" x1="82" x2="942" y1="512" y2="512">
        <stop offset="0.0203892" stop-color="#f76f53"/>
        <stop offset="0.0694477" stop-color="#ffb4a7"/>
        <stop offset="0.123925" stop-color="#f76f53"/>
        <stop offset="0.837825" stop-color="#f76f53"/>
        <stop offset="0.907981" stop-color="#ffb4a7"/>
        <stop offset="0.9763" stop-color="#f76f53"/>
    </linearGradient>
    <linearGradient id="b" gradientTransform="matrix(0.120984 0 0 0.114123 3.023916 2.584318)" gradientUnits="userSpaceOnUse" x1="512" x2="512" y1="82" y2="942">
        <stop offset="0" stop-color="#ff886f"/>
        <stop offset="0.45" stop-color="#f76f53"/>
        <stop offset="1" stop-color="#c54b31"/>
    </linearGradient>
    <path d="m 20.753906 12.011719 h 88.425782 c 4.3125 0 7.8125 3.496093 7.8125 7.8125 v 88.863281 c 0 4.3125 -3.5 7.808594 -7.8125 7.808594 h -88.425782 c -4.3125 0 -7.808594 -3.496094 -7.808594 -7.808594 v -88.863281 c 0 -4.316407 3.496094 -7.8125 7.808594 -7.8125 z m 0 0" fill="url(#a)"/>
    <path d="m 20.753906 11.941406 h 88.425782 c 4.3125 0 7.8125 3.496094 7.8125 7.8125 v 82.523438 c 0 4.3125 -3.5 7.8125 -7.8125 7.8125 h -88.425782 c -4.3125 0 -7.808594 -3.5 -7.808594 -7.8125 v -82.523438 c 0 -4.316406 3.496094 -7.8125 7.808594 -7.8125 z m 0 0" fill="url(#b)"/>
    <g fill="none" stroke="#f2f0e3">
        <path d="m 78.00755144875 61.10134930725 c 0 7.4765364045 -6.058572583 13.5351089875 -13.5351089875 13.5351089875 c -7.47263027925 0 -13.53120286225 -6.058572583 -13.53120286225 -13.5351089875 c 0 -7.47263027925 6.058572583 -13.53510910725 13.53120286225 -13.53510910725 c 7.4765364045 0 13.5351089875 6.062478828 13.5351089875 13.53510910725 z m 0 0" stroke-width="3.01713705525"/>
        <path d="m 88.1520473205 61.10134930725 c 0 13.0780792805 -10.60152557875 23.67960485925 -23.67960485925 23.67960485925 c -13.07807940025 0 -23.679604979 -10.60152557875 -23.679604979 -23.67960485925 c 0 -13.07807940025 10.60152557875 -23.679604979 23.679604979 -23.679604979 c 13.0780792805 0 23.67960485925 10.60152557875 23.67960485925 23.679604979 z m 0 0" stroke-width="5.02856583025"/>
        <path d="m 100.191067826 61.10134930725 c 0 19.726493661 -15.99213170375 35.71862536475 -35.71862536475 35.71862536475 c -19.72649378075 0 -35.7147192395 -15.99213170375 -35.7147192395 -35.71862536475 c 0 -19.72649378075 15.98822545875 -35.7147192395 35.7147192395 -35.7147192395 c 19.726493661 0 35.71862536475 15.98822545875 35.71862536475 35.7147192395 z m 0 0" stroke-width="7.03999484475"/>
    </g>
</svg>
